<?xml version="1.0" standalone="no"?>
<!DOCTYPE svg PUBLIC "-//W3C//DTD SVG 20010904//EN"
 "http://www.w3.org/TR/2001/REC-SVG-20010904/DTD/svg10.dtd">
<svg version="1.0" xmlns="http://www.w3.org/2000/svg"
 width="260.000000pt" height="260.000000pt" viewBox="0 0 260.000000 260.000000"
 preserveAspectRatio="xMidYMid meet">
<metadata>
Created by potrace 1.14, written by Peter Selinger 2001-2017
</metadata>
<g transform="translate(0.000000,260.000000) scale(0.100000,-0.100000)"
fill="#000000" stroke="none">
<path d="M306 2589 c-62 -15 -153 -68 -197 -116 -22 -24 -55 -74 -72 -111
l-32 -67 0 -990 0 -990 23 -55 c48 -117 146 -208 259 -241 71 -21 1955 -21
2026 0 113 33 211 124 259 241 l23 55 0 991 0 990 -37 76 c-45 91 -103 147
-196 191 l-67 32 -975 2 c-568 1 -991 -3 -1014 -8z m1259 -589 c16 -17 14 -33
-24 -234 -23 -118 -41 -226 -41 -240 0 -41 27 -47 192 -45 146 1 153 0 170
-21 10 -12 18 -28 18 -36 0 -8 -39 -62 -87 -121 -173 -214 -586 -709 -610
-731 -28 -25 -75 -29 -93 -7 -19 22 -15 74 20 261 17 93 34 183 37 200 10 58
-8 64 -183 64 -163 0 -194 7 -194 42 0 25 10 39 214 288 368 449 490 592 509
599 27 10 52 4 72 -19z"/>
</g>
</svg>
