<svg aria-hidden="true" style="position:absolute;width:0;height:0;overflow:hidden" xmlns="http://www.w3.org/2000/svg">
  <defs>
    <symbol id="icon-puzzle-piece" viewBox="0 0 32 32">
      <path stroke-linejoin="round" stroke-linecap="round" stroke-width="2.667" d="m16 2.667 4.8 4.8C24-.933 32.933 8 24.533 11.2l4.8 4.8-4.8 4.8c-3.2-8.4-12.133.533-3.733 3.733l-4.8 4.8-4.8-4.8C8 32.933-.933 24 7.467 20.8l-4.8-4.8 4.8-4.8c3.2 8.4 12.133-.533 3.733-3.733l4.8-4.8z"/>
    </symbol>
    <symbol id="icon-project" viewBox="0 0 28 24">
      <path stroke-width="1.92" d="M7.005 5.024a2.493 2.493 0 0 1 1.859-1.859 5.31 5.31 0 0 1 2.431 0 2.493 2.493 0 0 1 1.859 1.859 5.31 5.31 0 0 1 0 2.431 2.493 2.493 0 0 1-1.859 1.859 5.31 5.31 0 0 1-2.431 0 2.493 2.493 0 0 1-1.859-1.859 5.31 5.31 0 0 1 0-2.431zM7.005 15.584a2.495 2.495 0 0 1 1.859-1.859 5.31 5.31 0 0 1 2.431 0 2.493 2.493 0 0 1 1.859 1.859 5.31 5.31 0 0 1 0 2.431 2.495 2.495 0 0 1-1.859 1.859 5.31 5.31 0 0 1-2.431 0 2.493 2.493 0 0 1-1.859-1.859 5.31 5.31 0 0 1 0-2.431zM17.565 5.024a2.493 2.493 0 0 1 1.859-1.859 5.31 5.31 0 0 1 2.431 0 2.495 2.495 0 0 1 1.859 1.859 5.31 5.31 0 0 1 0 2.431 2.493 2.493 0 0 1-1.859 1.859 5.31 5.31 0 0 1-2.431 0 2.495 2.495 0 0 1-1.859-1.859 5.31 5.31 0 0 1 0-2.431zM17.565 15.584a2.495 2.495 0 0 1 1.859-1.859 5.31 5.31 0 0 1 2.431 0 2.495 2.495 0 0 1 1.859 1.859 5.31 5.31 0 0 1 0 2.431 2.495 2.495 0 0 1-1.859 1.859 5.31 5.31 0 0 1-2.431 0 2.495 2.495 0 0 1-1.859-1.859 5.31 5.31 0 0 1 0-2.431z"/>
    </symbol>
    <symbol id="icon-star" viewBox="0 0 32 32">
      <path stroke-linejoin="round" stroke-linecap="round" stroke-width="2.667" d="m16 2.667 2.683 6.975c.376.978.564 1.466.856 1.878.259.364.577.683.942.942.411.292.9.48 1.878.856l6.975 2.683-6.975 2.683c-.978.376-1.466.564-1.878.856a3.993 3.993 0 0 0-.942.942c-.292.411-.48.9-.856 1.878L16 29.335l-2.683-6.975c-.376-.978-.564-1.466-.856-1.878a4.012 4.012 0 0 0-.942-.942c-.411-.292-.9-.48-1.878-.856l-6.975-2.683 6.975-2.683c.978-.376 1.466-.564 1.878-.856.364-.259.683-.578.942-.942.292-.411.48-.9.856-1.878L16 2.667z"/>
    </symbol>
    <symbol id="icon-loading" viewBox="0 0 32 32">
      <path stroke-linejoin="round" stroke-linecap="round" stroke-width="2.667" d="M4.454 22.666a6.364 6.364 0 0 1 1.944-8.453l.003-.003a6.37 6.37 0 0 1 7.312.126l4.576 3.327a6.37 6.37 0 0 0 7.312.126l.003-.003a6.36 6.36 0 0 0 1.943-8.453m-4.878 18.213a6.365 6.365 0 0 1-8.453-1.944l-.003-.003a6.37 6.37 0 0 1 .126-7.312l3.327-4.576a6.37 6.37 0 0 0 .126-7.312l-.006-.003a6.363 6.363 0 0 0-8.453-1.942m16.094 2.118c5.207 5.207 5.207 13.648 0 18.855s-13.648 5.207-18.855 0c-5.207-5.207-5.207-13.648 0-18.855s13.648-5.207 18.855 0z"/>
    </symbol>
    <symbol id="icon-lightning" viewBox="0 0 32 32">
      <path stroke-linejoin="round" stroke-linecap="round" stroke-width="2.667" d="M18.999 2.667h-7.674c-.239 0-.359 0-.465.036a.672.672 0 0 0-.249.154c-.08.078-.133.185-.24.399l-5.6 11.2c-.256.511-.383.767-.353.974a.669.669 0 0 0 .277.449c.172.12.458.12 1.029.12h8.274l-4 13.333 16.258-16.86c.548-.569.823-.853.839-1.097a.665.665 0 0 0-.235-.553c-.186-.157-.581-.157-1.372-.157h-9.49l3-8z"/>
    </symbol>
    <symbol id="icon-hexagon" viewBox="0 0 32 32">
      <path stroke-linejoin="round" stroke-linecap="round" stroke-width="2.667" d="M14.964 3.242c.378-.21.567-.315.767-.356.177-.036.36-.036.537 0 .2.041.389.146.767.356l9.867 5.482c.399.222.599.333.744.491.129.14.226.305.285.485.067.204.067.432.067.889v10.823c0 .457 0 .685-.067.889-.06.18-.157.346-.285.485-.145.158-.345.269-.744.491l-9.867 5.482c-.378.21-.567.315-.767.356-.177.036-.36.036-.537 0-.2-.041-.389-.146-.767-.356l-9.867-5.482c-.399-.222-.599-.333-.744-.491a1.34 1.34 0 0 1-.286-.485C4 22.097 4 21.869 4 21.412V10.589c0-.457 0-.685.067-.889.06-.18.157-.346.286-.485.145-.158.345-.269.744-.491l9.867-5.481z"/>
    </symbol>
    <symbol id="icon-container" viewBox="0 0 32 32">
      <path stroke-linejoin="round" stroke-linecap="round" stroke-width="2.667" d="M27.333 9.704 16 16m0 0L4.667 9.704M16 16v12.667m12-7.256V10.588c0-.457 0-.685-.067-.889a1.343 1.343 0 0 0-.285-.485c-.145-.158-.345-.269-.744-.491l-9.867-5.481c-.378-.21-.567-.315-.767-.356a1.349 1.349 0 0 0-.537 0c-.2.041-.389.146-.767.356L5.099 8.723c-.399.222-.599.333-.744.491a1.34 1.34 0 0 0-.286.485c-.067.204-.067.432-.067.889v10.823c0 .457 0 .685.067.889.06.18.157.346.286.485.145.158.345.269.744.491l9.867 5.482c.378.21.567.315.767.356.177.036.36.036.537 0 .2-.041.389-.146.767-.356l9.867-5.482c.399-.222.599-.333.744-.491.129-.14.226-.305.285-.485.067-.204.067-.432.067-.889z"/>
    </symbol>
    <symbol id="icon-colors" viewBox="0 0 32 32">
      <path stroke-linejoin="round" stroke-linecap="round" stroke-width="2.667" d="M16 27.296a8 8 0 1 0 7.44-13.683m-14.88.001a8 8 0 1 0 9.546 4.773M24 10.667a8 8 0 1 1-16 0 8 8 0 0 1 16 0z"/>
    </symbol>
    <symbol id="icon-deadline" viewBox="0 0 32 32">
    <path stroke-linejoin="round" stroke-linecap="round" stroke-miterlimit="4" stroke-width="3" d="M12.472 28c0.94 0.83 2.176 1.334 3.528 1.334s2.588-0.504 3.528-1.334M24 10.666c0-4.418-3.582-8-8-8s-8 3.582-8 8v0c0 4.12-1.040 6.942-2.2 8.808-0.98 1.574-1.47 2.36-1.452 2.58 0.020 0.244 0.072 0.336 0.268 0.48 0.176 0.132 0.974 0.132 2.568 0.132h17.63c1.596 0 2.394 0 2.57-0.13 0.196-0.146 0.248-0.24 0.268-0.48 0.018-0.22-0.472-1.008-1.452-2.582-1.16-1.866-2.2-4.688-2.2-8.808z"></path>
    </symbol>
    <symbol id="icon-delete" viewBox="0 0 32 32">
    <path stroke-linejoin="round" stroke-linecap="round" stroke-miterlimit="4" stroke-width="2.6" d="M12 4h8M4 8h24M6.666 8l0.8 12.018c0.15 2.23 0.224 3.346 0.59 4.242 0.673 1.626 1.993 2.868 3.63 3.424l0.042 0.012c0.918 0.304 2.036 0.304 4.272 0.304v0c2.236 0 3.354 0 4.272-0.304 1.679-0.568 2.999-1.81 3.657-3.396l0.015-0.040c0.366-0.896 0.44-2.012 0.588-4.242l0.8-12.018"></path>
    </symbol>
    <symbol id="icon-edit" viewBox="0 0 32 32">
    <path stroke-linejoin="round" stroke-linecap="round" stroke-miterlimit="4" stroke-width="2.6" d="M3.334 28.666l7.4-2.844c0.472-0.182 0.708-0.274 0.93-0.392 0.196-0.106 0.384-0.228 0.56-0.366 0.2-0.154 0.378-0.332 0.736-0.69l15.040-15.040c0.703-0.686 1.138-1.642 1.138-2.7 0-2.083-1.689-3.772-3.772-3.772-1.058 0-2.014 0.436-2.699 1.137l-15.041 15.041c-0.358 0.36-0.536 0.538-0.69 0.736-0.138 0.176-0.26 0.364-0.366 0.56-0.118 0.22-0.208 0.46-0.39 0.932l-2.846 7.4zM3.334 28.666l2.744-7.134c0.196-0.51 0.294-0.766 0.462-0.882 0.106-0.075 0.238-0.12 0.381-0.12 0.044 0 0.087 0.004 0.129 0.012l-0.004-0.001c0.2 0.040 0.394 0.232 0.78 0.62l3.014 3.010c0.386 0.388 0.58 0.58 0.618 0.782 0.008 0.038 0.012 0.081 0.012 0.125 0 0.143-0.045 0.275-0.121 0.383l0.001-0.002c-0.116 0.168-0.372 0.266-0.882 0.462l-7.134 2.744z"></path>
    </symbol>
    <symbol id="icon-move" viewBox="0 0 32 32">
    <path stroke-linejoin="round" stroke-linecap="round" stroke-miterlimit="4" stroke-width="2.6" d="M4.45 9.334c2.348-4.014 6.638-6.667 11.548-6.667 7.364 0 13.334 5.97 13.334 13.334s-5.97 13.334-13.334 13.334c-4.909 0-9.199-2.653-11.514-6.604l-0.034-0.063"></path>
    <path stroke-linejoin="round" stroke-linecap="round" stroke-miterlimit="4" stroke-width="2.6" d="M16 21.334l5.334-5.334-5.334-5.334M2.666 16h18.668"></path>
    </symbol>
    <symbol id="icon-filter" viewBox="0 0 32 32">
    <path stroke-linejoin="round" stroke-linecap="round" stroke-miterlimit="4" stroke-width="3" d="M29.332 4h-26.666l10.666 12.614v8.72l5.334 2.666v-11.386l10.666-12.614z"></path>
    </symbol>
    </defs>
  </svg>
