<svg aria-hidden="true" style="position:absolute;width:0;height:0;overflow:hidden" xmlns="http://www.w3.org/2000/svg">
  <defs>
    <symbol id="icon-puzzle-piece" viewBox="0 0 32 32">
      <path stroke-linejoin="round" stroke-linecap="round" stroke-width="2.667" d="m16 2.667 4.8 4.8C24-.933 32.933 8 24.533 11.2l4.8 4.8-4.8 4.8c-3.2-8.4-12.133.533-3.733 3.733l-4.8 4.8-4.8-4.8C8 32.933-.933 24 7.467 20.8l-4.8-4.8 4.8-4.8c3.2 8.4 12.133-.533 3.733-3.733l4.8-4.8z"/>
    </symbol>
    <symbol id="icon-project" viewBox="0 0 28 24">
      <path stroke-width="1.92" d="M7.005 5.024a2.493 2.493 0 0 1 1.859-1.859 5.31 5.31 0 0 1 2.431 0 2.493 2.493 0 0 1 1.859 1.859 5.31 5.31 0 0 1 0 2.431 2.493 2.493 0 0 1-1.859 1.859 5.31 5.31 0 0 1-2.431 0 2.493 2.493 0 0 1-1.859-1.859 5.31 5.31 0 0 1 0-2.431zM7.005 15.584a2.495 2.495 0 0 1 1.859-1.859 5.31 5.31 0 0 1 2.431 0 2.493 2.493 0 0 1 1.859 1.859 5.31 5.31 0 0 1 0 2.431 2.495 2.495 0 0 1-1.859 1.859 5.31 5.31 0 0 1-2.431 0 2.493 2.493 0 0 1-1.859-1.859 5.31 5.31 0 0 1 0-2.431zM17.565 5.024a2.493 2.493 0 0 1 1.859-1.859 5.31 5.31 0 0 1 2.431 0 2.495 2.495 0 0 1 1.859 1.859 5.31 5.31 0 0 1 0 2.431 2.493 2.493 0 0 1-1.859 1.859 5.31 5.31 0 0 1-2.431 0 2.495 2.495 0 0 1-1.859-1.859 5.31 5.31 0 0 1 0-2.431zM17.565 15.584a2.495 2.495 0 0 1 1.859-1.859 5.31 5.31 0 0 1 2.431 0 2.495 2.495 0 0 1 1.859 1.859 5.31 5.31 0 0 1 0 2.431 2.495 2.495 0 0 1-1.859 1.859 5.31 5.31 0 0 1-2.431 0 2.495 2.495 0 0 1-1.859-1.859 5.31 5.31 0 0 1 0-2.431z"/>
    </symbol>
    <symbol id="icon-star" viewBox="0 0 32 32">
      <path stroke-linejoin="round" stroke-linecap="round" stroke-width="2.667" d="m16 2.667 2.683 6.975c.376.978.564 1.466.856 1.878.259.364.577.683.942.942.411.292.9.48 1.878.856l6.975 2.683-6.975 2.683c-.978.376-1.466.564-1.878.856a3.993 3.993 0 0 0-.942.942c-.292.411-.48.9-.856 1.878L16 29.335l-2.683-6.975c-.376-.978-.564-1.466-.856-1.878a4.012 4.012 0 0 0-.942-.942c-.411-.292-.9-.48-1.878-.856l-6.975-2.683 6.975-2.683c.978-.376 1.466-.564 1.878-.856.364-.259.683-.578.942-.942.292-.411.48-.9.856-1.878L16 2.667z"/>
    </symbol>
    <symbol id="icon-loading" viewBox="0 0 32 32">
      <path stroke-linejoin="round" stroke-linecap="round" stroke-width="2.667" d="M4.454 22.666a6.364 6.364 0 0 1 1.944-8.453l.003-.003a6.37 6.37 0 0 1 7.312.126l4.576 3.327a6.37 6.37 0 0 0 7.312.126l.003-.003a6.36 6.36 0 0 0 1.943-8.453m-4.878 18.213a6.365 6.365 0 0 1-8.453-1.944l-.003-.003a6.37 6.37 0 0 1 .126-7.312l3.327-4.576a6.37 6.37 0 0 0 .126-7.312l-.006-.003a6.363 6.363 0 0 0-8.453-1.942m16.094 2.118c5.207 5.207 5.207 13.648 0 18.855s-13.648 5.207-18.855 0c-5.207-5.207-5.207-13.648 0-18.855s13.648-5.207 18.855 0z"/>
    </symbol>
    <symbol id="icon-lightning" viewBox="0 0 32 32">
      <path stroke-linejoin="round" stroke-linecap="round" stroke-width="2.667" d="M18.999 2.667h-7.674c-.239 0-.359 0-.465.036a.672.672 0 0 0-.249.154c-.08.078-.133.185-.24.399l-5.6 11.2c-.256.511-.383.767-.353.974a.669.669 0 0 0 .277.449c.172.12.458.12 1.029.12h8.274l-4 13.333 16.258-16.86c.548-.569.823-.853.839-1.097a.665.665 0 0 0-.235-.553c-.186-.157-.581-.157-1.372-.157h-9.49l3-8z"/>
    </symbol>
    <symbol id="icon-hexagon" viewBox="0 0 32 32">
      <path stroke-linejoin="round" stroke-linecap="round" stroke-width="2.667" d="M14.964 3.242c.378-.21.567-.315.767-.356.177-.036.36-.036.537 0 .2.041.389.146.767.356l9.867 5.482c.399.222.599.333.744.491.129.14.226.305.285.485.067.204.067.432.067.889v10.823c0 .457 0 .685-.067.889-.06.18-.157.346-.285.485-.145.158-.345.269-.744.491l-9.867 5.482c-.378.21-.567.315-.767.356-.177.036-.36.036-.537 0-.2-.041-.389-.146-.767-.356l-9.867-5.482c-.399-.222-.599-.333-.744-.491a1.34 1.34 0 0 1-.286-.485C4 22.097 4 21.869 4 21.412V10.589c0-.457 0-.685.067-.889.06-.18.157-.346.286-.485.145-.158.345-.269.744-.491l9.867-5.481z"/>
    </symbol>
    <symbol id="icon-container" viewBox="0 0 32 32">
      <path stroke-linejoin="round" stroke-linecap="round" stroke-width="2.667" d="M27.333 9.704 16 16m0 0L4.667 9.704M16 16v12.667m12-7.256V10.588c0-.457 0-.685-.067-.889a1.343 1.343 0 0 0-.285-.485c-.145-.158-.345-.269-.744-.491l-9.867-5.481c-.378-.21-.567-.315-.767-.356a1.349 1.349 0 0 0-.537 0c-.2.041-.389.146-.767.356L5.099 8.723c-.399.222-.599.333-.744.491a1.34 1.34 0 0 0-.286.485c-.067.204-.067.432-.067.889v10.823c0 .457 0 .685.067.889.06.18.157.346.286.485.145.158.345.269.744.491l9.867 5.482c.378.21.567.315.767.356.177.036.36.036.537 0 .2-.041.389-.146.767-.356l9.867-5.482c.399-.222.599-.333.744-.491.129-.14.226-.305.285-.485.067-.204.067-.432.067-.889z"/>
    </symbol>
    <symbol id="icon-colors" viewBox="0 0 32 32">
      <path stroke-linejoin="round" stroke-linecap="round" stroke-width="2.667" d="M16 27.296a8 8 0 1 0 7.44-13.683m-14.88.001a8 8 0 1 0 9.546 4.773M24 10.667a8 8 0 1 1-16 0 8 8 0 0 1 16 0z"/>
    </symbol>
    <symbol id="icon-trash" viewBox="0 0 32 32">
      <path stroke-linejoin="round" stroke-linecap="round" stroke-width="2.6" d="M12 4h8M4 8h24M6.667 8l.801 12.018c.149 2.231.223 3.347.588 4.243a6 6 0 0 0 3.672 3.435c.919.304 2.037.304 4.273.304 2.236 0 3.354 0 4.273-.304a6 6 0 0 0 3.672-3.435c.365-.896.439-2.012.588-4.243L25.335 8"/>
    </symbol>
    <symbol id="icon-plus" viewBox="0 0 32 32">
      <path stroke-linejoin="round" stroke-linecap="round" stroke-width="2.286" d="M16 6.667v18.667M6.667 16h18.667"/>
    </symbol>
    <symbol id="icon-pencil" viewBox="0 0 32 32">
      <path stroke-linejoin="round" stroke-linecap="round" stroke-width="2.6" d="m3.333 28.667 7.399-2.846c.473-.182.71-.273.931-.392.197-.106.384-.227.56-.364.199-.154.378-.333.736-.692l15.04-15.04A3.77 3.77 0 1 0 22.666 4L7.626 19.04c-.359.359-.538.538-.692.736a3.948 3.948 0 0 0-.364.56c-.119.221-.21.458-.392.931l-2.846 7.399zm0 0 2.744-7.135c.196-.511.295-.766.463-.883a.665.665 0 0 1 .505-.107c.201.038.395.232.782.619l3.012 3.012c.387.387.58.58.619.782a.665.665 0 0 1-.107.505c-.117.168-.372.267-.883.463l-7.135 2.744z"/>
    </symbol>
    <symbol id="icon-help-circle" viewBox="0 0 32 32">
      <path stroke-linejoin="round" stroke-linecap="round" stroke-width="2.88" d="M16 29.333c7.364 0 13.333-5.97 13.333-13.333S23.364 2.667 16 2.667 2.667 8.637 2.667 16c0 7.364 5.97 13.333 13.333 13.333z"/>
      <path stroke-linejoin="round" stroke-linecap="round" stroke-width="2.88" d="M12.12 12a4.003 4.003 0 0 1 6.834-1.249c.608.722.941 1.637.94 2.582 0 2.667-4 4-4 4M16 22.667h.02"/>
    </symbol>
    <symbol id="icon-filter" viewBox="0 0 32 32">
      <path stroke-linejoin="round" stroke-linecap="round" stroke-width="3" d="M29.334 4H2.667l10.667 12.613v8.72L18.667 28V16.613L29.334 4z"/>
    </symbol>
    <symbol id="icon-eye" viewBox="0 0 32 32">
      <path stroke-linejoin="round" stroke-linecap="round" stroke-width="2.311" d="M1.333 16S6.666 5.333 16 5.333 30.667 16 30.667 16 25.334 26.667 16 26.667 1.333 16 1.333 16z"/>
      <path stroke-linejoin="round" stroke-linecap="round" stroke-width="2.311" d="M16 20a4 4 0 1 0 0-8 4 4 0 0 0 0 8z"/>
    </symbol>
    <symbol id="icon-move" viewBox="0 0 30 32">
      <path stroke-linejoin="round" stroke-linecap="round" stroke-width="2.447" d="M4.188 9.725a12.544 12.544 0 0 1 10.87-6.275c6.931 0 12.549 5.618 12.549 12.549s-5.618 12.549-12.549 12.549c-4.645 0-8.7-2.523-10.87-6.274"/>
      <path stroke-linejoin="round" stroke-linecap="round" stroke-width="2.447" d="m15.059 21.019 5.02-5.02-5.02-5.02M2.51 16h17.569"/>
    </symbol>
    <symbol id="icon-x-close" viewBox="0 0 32 32">
      <path stroke-linejoin="round" stroke-linecap="round" stroke-width="2.667" d="M24 8 8 24M8 8l16 16"/>
    </symbol>
    <symbol id="icon-login" viewBox="0 0 32 32">
      <path stroke-linejoin="round" stroke-linecap="round" stroke-width="1.5" d="M11.867 10.08c.413-4.8 2.88-6.76 8.28-6.76h.173c5.96 0 8.347 2.387 8.347 8.347v8.693c0 5.96-2.387 8.347-8.347 8.347h-.173c-5.36 0-7.827-1.933-8.267-6.653M2.667 16H19.84"/>
      <path stroke-linejoin="round" stroke-linecap="round" stroke-width="1.5" d="M16.867 11.533 21.334 16l-4.467 4.467"/>
    </symbol>
    <symbol id="icon-burger-menu" viewBox="0 0 32 32">
    <path  stroke-linejoin="round" stroke-linecap="round" stroke-miterlimit="4" stroke-width="2.5" d="M4 16h24M4 8h24M4 24h24"></path>
    </symbol>
    <symbol id="icon-alert" viewBox="0 0 32 32">
    <path stroke-linejoin="round" stroke-linecap="round" stroke-miterlimit="4" stroke-width="3" d="M12.472 28c0.94 0.83 2.176 1.334 3.528 1.334s2.588-0.504 3.528-1.334M24 10.666c0-4.418-3.582-8-8-8s-8 3.582-8 8v0c0 4.12-1.040 6.942-2.2 8.808-0.98 1.574-1.47 2.36-1.452 2.58 0.020 0.244 0.072 0.336 0.268 0.48 0.176 0.132 0.974 0.132 2.568 0.132h17.63c1.596 0 2.394 0 2.57-0.13 0.196-0.146 0.248-0.24 0.268-0.48 0.018-0.22-0.472-1.008-1.452-2.582-1.16-1.866-2.2-4.688-2.2-8.808z"></path>
    </symbol>
    <symbol id="icon-dropdown" viewBox="0 0 30 32">
    <path stroke-linejoin="round" stroke-linecap="round" stroke-miterlimit="4" stroke-width="3.3684" d="M7.579 12.211l7.579 7.579 7.579-7.579"></path>
</symbol>
  </defs>
</svg>
